<svg xmlns="http://www.w3.org/2000/svg" width="1240" height="880" viewBox="0 0 1240 880" role="img" aria-labelledby="title desc">
<title id="title">F-S03 accelerated no-render simulation</title>
<desc id="desc">Acceleration factor and system cost for no-render simulation profiles.</desc>
<rect width="100%" height="100%" fill="#f7f7f3" />
<g font-family="Arial, sans-serif" fill="#222">
<text x="54" y="70" font-size="26" font-weight="700">F-S03 - Simulation acceleree sans rendu</text>
<text x="54" y="102" font-size="15" fill="#5f625d">3 profils, 3 repetitions, 180s simules, aucun rendu</text>
<rect x="54" y="124" width="1130" height="368" rx="7" fill="#ffffff" stroke="#c9c9c2" />
<text x="84" y="150" font-size="16" font-weight="700">Facteur d acceleration sans rendu</text>
<line x1="84" y1="454" x2="764" y2="454" stroke="#c9c9c2" />
<line x1="84" y1="389.69" x2="764" y2="389.69" stroke="#d2842f" stroke-dasharray="6 5" />
<text x="774" y="393.69" font-size="12" fill="#d2842f">seuil 20x</text>
<rect x="84.00" y="212.93" width="194.67" height="241.07" rx="5" fill="#2f9d68" />
<text x="181.33" y="202.93" font-size="13" font-weight="700" text-anchor="middle">75.0x</text>
<text x="181.33" y="482" font-size="12" text-anchor="middle">12 voitures</text>
<rect x="326.67" y="337.18" width="194.67" height="116.82" rx="5" fill="#2f9d68" />
<text x="424.00" y="327.18" font-size="13" font-weight="700" text-anchor="middle">36.3x</text>
<text x="424.00" y="482" font-size="12" text-anchor="middle">20 voitures</text>
<rect x="569.33" y="390.73" width="194.67" height="63.27" rx="5" fill="#2f9d68" />
<text x="666.67" y="380.73" font-size="13" font-weight="700" text-anchor="middle">19.7x</text>
<text x="666.67" y="482" font-size="12" text-anchor="middle">40 voitures</text>
<text x="838" y="150" font-size="16" font-weight="700">Contexte</text>
<rect x="832" y="178" width="314" height="52" rx="6" fill="#ffffff" stroke="#c9c9c2" />
<text x="848" y="199" font-size="12" fill="#5f625d">Duree simulee</text>
<text x="1126" y="211" font-size="22" font-weight="700" fill="#2f7ed8" text-anchor="end">180 s</text>
<rect x="832" y="246" width="314" height="52" rx="6" fill="#ffffff" stroke="#c9c9c2" />
<text x="848" y="267" font-size="12" fill="#5f625d">Tick rate</text>
<text x="1126" y="279" font-size="22" font-weight="700" fill="#2b8c91" text-anchor="end">60 Hz</text>
<rect x="832" y="314" width="314" height="52" rx="6" fill="#ffffff" stroke="#c9c9c2" />
<text x="848" y="335" font-size="12" fill="#5f625d">Min requis</text>
<text x="1126" y="347" font-size="22" font-weight="700" fill="#2f9d68" text-anchor="end">36.3x</text>
<rect x="832" y="382" width="314" height="52" rx="6" fill="#ffffff" stroke="#c9c9c2" />
<text x="848" y="403" font-size="12" fill="#5f625d">Tick p95 max</text>
<text x="1126" y="415" font-size="22" font-weight="700" fill="#d2842f" text-anchor="end">0.767 ms</text>
<rect x="54" y="520" width="1130" height="272" rx="7" fill="#ffffff" stroke="#c9c9c2" />
<text x="84" y="542" font-size="16" font-weight="700">Repartition du cout moyen par tick</text>
<text x="84" y="600" font-size="13" font-weight="700">12 voitures</text>
<rect x="184.00" y="576" width="271.34" height="36" fill="#2f7ed8" />
<text x="319.67" y="599" font-size="11" fill="#fff" text-anchor="middle">input</text>
<rect x="455.34" y="576" width="95.91" height="36" fill="#2f9d68" />
<text x="503.30" y="599" font-size="11" fill="#fff" text-anchor="middle">motion</text>
<rect x="551.25" y="576" width="44.21" height="36" fill="#6f4bb2" />
<text x="573.35" y="599" font-size="11" fill="#fff" text-anchor="middle">perception</text>
<rect x="595.46" y="576" width="185.15" height="36" fill="#d2842f" />
<text x="688.03" y="599" font-size="11" fill="#fff" text-anchor="middle">decision</text>
<rect x="780.61" y="576" width="42.65" height="36" fill="#2b8c91" />
<rect x="184" y="576" width="680" height="36" fill="none" stroke="#c9c9c2" />
<text x="880" y="599" font-size="12">0.2413 ms</text>
<text x="84" y="658" font-size="13" font-weight="700">20 voitures</text>
<rect x="184.00" y="634" width="262.02" height="36" fill="#2f7ed8" />
<text x="315.01" y="657" font-size="11" fill="#fff" text-anchor="middle">input</text>
<rect x="446.02" y="634" width="103.50" height="36" fill="#2f9d68" />
<text x="497.78" y="657" font-size="11" fill="#fff" text-anchor="middle">motion</text>
<rect x="549.53" y="634" width="41.97" height="36" fill="#6f4bb2" />
<rect x="591.49" y="634" width="201.71" height="36" fill="#d2842f" />
<text x="692.35" y="657" font-size="11" fill="#fff" text-anchor="middle">decision</text>
<rect x="793.21" y="634" width="41.43" height="36" fill="#2b8c91" />
<rect x="184" y="634" width="680" height="36" fill="none" stroke="#c9c9c2" />
<text x="880" y="657" font-size="12">0.4556 ms</text>
<text x="84" y="716" font-size="13" font-weight="700">40 voitures</text>
<rect x="184.00" y="692" width="263.25" height="36" fill="#2f7ed8" />
<text x="315.63" y="715" font-size="11" fill="#fff" text-anchor="middle">input</text>
<rect x="447.25" y="692" width="106.55" height="36" fill="#2f9d68" />
<text x="500.53" y="715" font-size="11" fill="#fff" text-anchor="middle">motion</text>
<rect x="553.81" y="692" width="41.42" height="36" fill="#6f4bb2" />
<rect x="595.23" y="692" width="208.92" height="36" fill="#d2842f" />
<text x="699.69" y="715" font-size="11" fill="#fff" text-anchor="middle">decision</text>
<rect x="804.15" y="692" width="41.07" height="36" fill="#2b8c91" />
<rect x="184" y="692" width="680" height="36" fill="none" stroke="#c9c9c2" />
<text x="880" y="715" font-size="12">0.8447 ms</text>
<rect x="184" y="770" width="14" height="14" fill="#2f7ed8" />
<text x="204" y="782" font-size="12">input</text>
<rect x="294" y="770" width="14" height="14" fill="#2f9d68" />
<text x="314" y="782" font-size="12">motion</text>
<rect x="404" y="770" width="14" height="14" fill="#6f4bb2" />
<text x="424" y="782" font-size="12">perception</text>
<rect x="514" y="770" width="14" height="14" fill="#d2842f" />
<text x="534" y="782" font-size="12">decision</text>
<rect x="624" y="770" width="14" height="14" fill="#2b8c91" />
<text x="644" y="782" font-size="12">replay</text>
<text x="838" y="542" font-size="16" font-weight="700">Profils</text>
<text x="838" y="574" font-size="12" fill="#5f625d">profil</text>
<text x="990" y="574" font-size="12" fill="#5f625d">facteur</text>
<text x="1084" y="574" font-size="12" fill="#5f625d">veh/s</text>
<rect x="828" y="578" width="318" height="38" rx="4" fill="#fbfbf8" stroke="#ecece7" />
<text x="838" y="606" font-size="12" font-weight="700">target_12_accel</text>
<text x="990" y="606" font-size="12">75.0x</text>
<text x="1084" y="606" font-size="12">53981</text>
<rect x="828" y="622" width="318" height="38" rx="4" fill="#ffffff" stroke="#ecece7" />
<text x="838" y="650" font-size="12" font-weight="700">target_20_accel</text>
<text x="990" y="650" font-size="12">36.3x</text>
<text x="1084" y="650" font-size="12">43598</text>
<rect x="828" y="666" width="318" height="38" rx="4" fill="#fbfbf8" stroke="#ecece7" />
<text x="838" y="694" font-size="12" font-weight="700">stress_40_accel</text>
<text x="990" y="694" font-size="12">19.7x</text>
<text x="1084" y="694" font-size="12">47224</text>
</g>
</svg>
